<svg viewBox="6.875 6.875 136.25 136.25" xmlns="http://www.w3.org/2000/svg" xmlns:xlink="http://www.w3.org/1999/xlink" overflow="hidden"><path d="M70 106.864 70 43.136C70 40.299 72.239 38 75 38 77.761 38 80 40.3 80 43.136L80 106.864C80 109.701 77.761 112 75 112 72.239 112 70 109.701 70 106.864ZM98 106.82 98 85.18C98 82.319 100.238 80 103 80 105.762 80 108 82.319 108 85.18L108 106.82C108 109.681 105.761 112 103 112 100.239 112 98 109.681 98 106.82ZM42 106.876 42 64.124C42 61.294 44.239 59 47 59 49.761 59 52 61.294 52 64.124L52 106.876C52 109.706 49.761 112 47 112 44.239 112 42 109.706 42 106.876Z"/><path d="M132.71 75C132.71 62.177 132.016 52.224 130.29 44.459 128.578 36.751 125.917 31.517 122.2 27.799 118.483 24.083 113.249 21.422 105.541 19.709 97.776 17.984 87.823 17.289 75 17.289 62.177 17.289 52.224 17.984 44.459 19.709 36.751 21.422 31.517 24.082 27.799 27.799 24.083 31.517 21.422 36.751 19.709 44.459 17.984 52.224 17.289 62.177 17.289 75 17.289 87.823 17.984 97.776 19.709 105.541 21.422 113.249 24.082 118.483 27.799 122.2 31.517 125.917 36.751 128.578 44.459 130.29 52.224 132.016 62.177 132.71 75 132.71 87.823 132.71 97.776 132.016 105.541 130.29 113.249 128.578 118.483 125.917 122.2 122.2 125.917 118.483 128.578 113.249 130.29 105.541 132.016 97.776 132.71 87.823 132.71 75ZM143 75C143 88.058 142.307 98.902 140.336 107.775 138.351 116.705 135.002 123.95 129.476 129.476 123.95 135.002 116.705 138.351 107.775 140.336 98.902 142.307 88.058 143 75 143 61.943 143 51.099 142.307 42.226 140.336 33.296 138.351 26.05 135.002 20.524 129.476 14.998 123.95 11.649 116.705 9.664 107.775 7.694 98.902 7 88.058 7 75 7 61.943 7.693 51.099 9.665 42.226 11.649 33.296 14.998 26.05 20.524 20.524 26.05 14.998 33.296 11.649 42.226 9.664 51.1 7.694 61.943 7 75 7 88.058 7 98.902 7.693 107.775 9.665 116.705 11.649 123.95 14.998 129.476 20.524 135.002 26.05 138.351 33.296 140.336 42.226 142.307 51.1 143 61.943 143 75Z"/></svg>